HIERARCHY
ROOT mixamorig:Hips
{
	OFFSET 0.000000 201.639420 0.000000
	CHANNELS 6 Xposition Yposition Zposition Xrotation Yrotation Zrotation
	JOINT mixamorig:Spine
	{
		OFFSET 0.006200 19.524994 -2.481800
		CHANNELS 3 Xrotation Yrotation Zrotation
		JOINT mixamorig:Spine1
		{
			OFFSET -0.000900 22.835007 -2.825400
			CHANNELS 3 Xrotation Yrotation Zrotation
			JOINT mixamorig:Spine2
			{
				OFFSET -0.020600 26.552490 -3.193300
				CHANNELS 3 Xrotation Yrotation Zrotation
				JOINT mixamorig:Neck
				{
					OFFSET -0.060000 30.701813 1.352200
					CHANNELS 3 Xrotation Yrotation Zrotation
					JOINT mixamorig:Head
					{
						OFFSET -0.087200 22.547607 3.670900
						CHANNELS 3 Xrotation Yrotation Zrotation
						JOINT mixamorig:HeadTop_End
						{
							OFFSET -0.830600 40.355194 7.893500
							CHANNELS 3 Xrotation Yrotation Zrotation
							End Site
							{
								OFFSET 0.000000 30.592346 0.000000
							}
						}
						JOINT mixamorig:RightEye
						{
							OFFSET -6.302100 18.118591 16.197100
							CHANNELS 3 Xrotation Yrotation Zrotation
							End Site
							{
								OFFSET 0.000000 30.592346 0.000000
							}
						}
						JOINT mixamorig:LeftEye
						{
							OFFSET 6.741500 18.382690 16.401899
							CHANNELS 3 Xrotation Yrotation Zrotation
							End Site
							{
								OFFSET 0.000000 30.592346 0.000000
							}
						}
					}
				}
				JOINT mixamorig:LeftShoulder
				{
					OFFSET 11.924900 18.230499 1.425400
					CHANNELS 3 Xrotation Yrotation Zrotation
					JOINT mixamorig:LeftArm
					{
						OFFSET 25.435989 -0.697632 -5.229300
						CHANNELS 3 Xrotation Yrotation Zrotation
						JOINT mixamorig:LeftForeArm
						{
							OFFSET 54.684776 0.000000 0.000000
							CHANNELS 3 Xrotation Yrotation Zrotation
							JOINT mixamorig:LeftHand
							{
								OFFSET 55.098175 0.000000 0.000000
								CHANNELS 3 Xrotation Yrotation Zrotation
								JOINT mixamorig:LeftHandMiddle1
								{
									OFFSET 23.369751 0.000000 0.000000
									CHANNELS 3 Xrotation Yrotation Zrotation
									JOINT mixamorig:LeftHandMiddle2
									{
										OFFSET 6.378677 0.000000 0.000000
										CHANNELS 3 Xrotation Yrotation Zrotation
										JOINT mixamorig:LeftHandMiddle3
										{
											OFFSET 6.148331 0.000000 0.000000
											CHANNELS 3 Xrotation Yrotation Zrotation
											JOINT mixamorig:LeftHandMiddle4
											{
												OFFSET 6.582504 0.000000 0.000000
												CHANNELS 3 Xrotation Yrotation Zrotation
												End Site
												{
													OFFSET -1.168900 6.395691 1.028606
												}
											}
										}
									}
								}
								JOINT mixamorig:LeftHandThumb1
								{
									OFFSET 7.235672 -3.848206 5.434273
									CHANNELS 3 Xrotation Yrotation Zrotation
									JOINT mixamorig:LeftHandThumb2
									{
										OFFSET 6.568451 -3.792297 3.792300
										CHANNELS 3 Xrotation Yrotation Zrotation
										JOINT mixamorig:LeftHandThumb3
										{
											OFFSET 6.063080 -3.500519 3.500518
											CHANNELS 3 Xrotation Yrotation Zrotation
											JOINT mixamorig:LeftHandThumb4
											{
												OFFSET 4.793182 -2.767334 2.767349
												CHANNELS 3 Xrotation Yrotation Zrotation
												End Site
												{
													OFFSET 0.101639 6.054260 1.275483
												}
											}
										}
									}
								}
								JOINT mixamorig:LeftHandIndex1
								{
									OFFSET 23.101074 -0.309540 4.992809
									CHANNELS 3 Xrotation Yrotation Zrotation
									JOINT mixamorig:LeftHandIndex2
									{
										OFFSET 6.226883 0.000000 0.000000
										CHANNELS 3 Xrotation Yrotation Zrotation
										JOINT mixamorig:LeftHandIndex3
										{
											OFFSET 6.094330 0.000000 0.000000
											CHANNELS 3 Xrotation Yrotation Zrotation
											JOINT mixamorig:LeftHandIndex4
											{
												OFFSET 5.482605 0.000000 0.000000
												CHANNELS 3 Xrotation Yrotation Zrotation
												End Site
												{
													OFFSET -1.427902 5.233032 0.797164
												}
											}
										}
									}
								}
								JOINT mixamorig:LeftHandRing1
								{
									OFFSET 22.299240 0.021149 -3.964172
									CHANNELS 3 Xrotation Yrotation Zrotation
									JOINT mixamorig:LeftHandRing2
									{
										OFFSET 6.321869 0.000000 0.000000
										CHANNELS 3 Xrotation Yrotation Zrotation
										JOINT mixamorig:LeftHandRing3
										{
											OFFSET 5.899796 0.000000 0.000000
											CHANNELS 3 Xrotation Yrotation Zrotation
											JOINT mixamorig:LeftHandRing4
											{
												OFFSET 6.517899 0.000000 0.000000
												CHANNELS 3 Xrotation Yrotation Zrotation
												End Site
												{
													OFFSET -1.637299 6.232208 0.980890
												}
											}
										}
									}
								}
								JOINT mixamorig:LeftHandPinky1
								{
									OFFSET 20.463791 -0.302338 -8.562233
									CHANNELS 3 Xrotation Yrotation Zrotation
									JOINT mixamorig:LeftHandPinky2
									{
										OFFSET 6.908646 0.000000 0.000000
										CHANNELS 3 Xrotation Yrotation Zrotation
										JOINT mixamorig:LeftHandPinky3
										{
											OFFSET 4.622849 0.000000 0.000000
											CHANNELS 3 Xrotation Yrotation Zrotation
											JOINT mixamorig:LeftHandPinky4
											{
												OFFSET 5.216080 0.000000 0.000000
												CHANNELS 3 Xrotation Yrotation Zrotation
												End Site
												{
													OFFSET -0.606308 5.116241 0.814926
												}
											}
										}
									}
								}
							}
						}
					}
				}
				JOINT mixamorig:RightShoulder
				{
					OFFSET -12.001300 18.284088 1.348900
					CHANNELS 3 Xrotation Yrotation Zrotation
					JOINT mixamorig:RightArm
					{
						OFFSET -25.308500 -0.751312 -5.164599
						CHANNELS 3 Xrotation Yrotation Zrotation
						JOINT mixamorig:RightForeArm
						{
							OFFSET -54.684429 0.000000 0.000000
							CHANNELS 3 Xrotation Yrotation Zrotation
							JOINT mixamorig:RightHand
							{
								OFFSET -55.150291 0.000000 0.000000
								CHANNELS 3 Xrotation Yrotation Zrotation
								JOINT mixamorig:RightHandMiddle1
								{
									OFFSET -23.317566 0.000000 0.000000
									CHANNELS 3 Xrotation Yrotation Zrotation
									JOINT mixamorig:RightHandMiddle2
									{
										OFFSET -6.378403 0.000000 0.000000
										CHANNELS 3 Xrotation Yrotation Zrotation
										JOINT mixamorig:RightHandMiddle3
										{
											OFFSET -6.148193 0.000000 0.000000
											CHANNELS 3 Xrotation Yrotation Zrotation
											JOINT mixamorig:RightHandMiddle4
											{
												OFFSET -6.583389 0.000000 0.000000
												CHANNELS 3 Xrotation Yrotation Zrotation
												End Site
												{
													OFFSET 1.171692 6.395905 1.029786
												}
											}
										}
									}
								}
								JOINT mixamorig:RightHandThumb1
								{
									OFFSET -7.190521 -3.860474 5.435846
									CHANNELS 3 Xrotation Yrotation Zrotation
									JOINT mixamorig:RightHandThumb2
									{
										OFFSET -6.567429 -3.791718 3.791708
										CHANNELS 3 Xrotation Yrotation Zrotation
										JOINT mixamorig:RightHandThumb3
										{
											OFFSET -6.062469 -3.500153 3.500166
											CHANNELS 3 Xrotation Yrotation Zrotation
											JOINT mixamorig:RightHandThumb4
											{
												OFFSET -4.792618 -2.767029 2.767022
												CHANNELS 3 Xrotation Yrotation Zrotation
												End Site
												{
													OFFSET -0.100327 6.053253 1.276754
												}
											}
										}
									}
								}
								JOINT mixamorig:RightHandIndex1
								{
									OFFSET -23.048981 -0.310791 4.992554
									CHANNELS 3 Xrotation Yrotation Zrotation
									JOINT mixamorig:RightHandIndex2
									{
										OFFSET -6.227539 0.000000 0.000000
										CHANNELS 3 Xrotation Yrotation Zrotation
										JOINT mixamorig:RightHandIndex3
										{
											OFFSET -6.095047 0.000000 0.000000
											CHANNELS 3 Xrotation Yrotation Zrotation
											JOINT mixamorig:RightHandIndex4
											{
												OFFSET -5.484772 0.000000 0.000000
												CHANNELS 3 Xrotation Yrotation Zrotation
												End Site
												{
													OFFSET 1.420593 5.237305 0.797056
												}
											}
										}
									}
								}
								JOINT mixamorig:RightHandRing1
								{
									OFFSET -22.246323 0.020569 -3.963762
									CHANNELS 3 Xrotation Yrotation Zrotation
									JOINT mixamorig:RightHandRing2
									{
										OFFSET -6.322128 0.000000 0.000000
										CHANNELS 3 Xrotation Yrotation Zrotation
										JOINT mixamorig:RightHandRing3
										{
											OFFSET -5.900024 0.000000 0.000000
											CHANNELS 3 Xrotation Yrotation Zrotation
											JOINT mixamorig:RightHandRing4
											{
												OFFSET -6.518356 0.000000 0.000000
												CHANNELS 3 Xrotation Yrotation Zrotation
												End Site
												{
													OFFSET 1.636398 6.232697 0.982186
												}
											}
										}
									}
								}
								JOINT mixamorig:RightHandPinky1
								{
									OFFSET -20.411011 -0.303314 -8.561701
									CHANNELS 3 Xrotation Yrotation Zrotation
									JOINT mixamorig:RightHandPinky2
									{
										OFFSET -6.907349 0.000000 0.000000
										CHANNELS 3 Xrotation Yrotation Zrotation
										JOINT mixamorig:RightHandPinky3
										{
											OFFSET -4.623840 0.000000 0.000000
											CHANNELS 3 Xrotation Yrotation Zrotation
											JOINT mixamorig:RightHandPinky4
											{
												OFFSET -5.218353 0.000000 0.000000
												CHANNELS 3 Xrotation Yrotation Zrotation
												End Site
												{
													OFFSET 0.602097 5.118835 0.816273
												}
											}
										}
									}
								}
							}
						}
					}
				}
			}
		}
	}
	JOINT mixamorig:LeftUpLeg
	{
		OFFSET 18.168400 -13.561905 -0.039000
		CHANNELS 3 Xrotation Yrotation Zrotation
		JOINT mixamorig:LeftLeg
		{
			OFFSET 0.577358 -80.825211 -3.695000
			CHANNELS 3 Xrotation Yrotation Zrotation
			JOINT mixamorig:LeftFoot
			{
				OFFSET -0.577356 -83.370262 -6.520700
				CHANNELS 3 Xrotation Yrotation Zrotation
				JOINT mixamorig:LeftToeBase
				{
					OFFSET 0.750401 -20.798306 25.135401
					CHANNELS 3 Xrotation Yrotation Zrotation
					JOINT mixamorig:LeftToe_End
					{
						OFFSET -0.000500 0.001200 19.917799
						CHANNELS 3 Xrotation Yrotation Zrotation
						End Site
						{
							OFFSET 0.000000 19.917805 0.000000
						}
					}
				}
			}
		}
	}
	JOINT mixamorig:RightUpLeg
	{
		OFFSET -18.162500 -13.585098 -0.041000
		CHANNELS 3 Xrotation Yrotation Zrotation
		JOINT mixamorig:RightLeg
		{
			OFFSET -0.595024 -80.945297 -3.631900
			CHANNELS 3 Xrotation Yrotation Zrotation
			JOINT mixamorig:RightFoot
			{
				OFFSET 0.595024 -83.218193 -6.561200
				CHANNELS 3 Xrotation Yrotation Zrotation
				JOINT mixamorig:RightToeBase
				{
					OFFSET -0.753601 -20.807106 25.115000
					CHANNELS 3 Xrotation Yrotation Zrotation
					JOINT mixamorig:RightToe_End
					{
						OFFSET 0.000299 0.001700 19.918200
						CHANNELS 3 Xrotation Yrotation Zrotation
						End Site
						{
							OFFSET 0.000000 19.918203 0.000000
						}
					}
				}
			}
		}
	}
}
MOTION
Frames: 5
Frame Time: 0.033333
-26.201288 87.632523 11.672970 8.227557 -6.301799 0.718501 8.432955 -2.224005 -2.160668 16.813846 -4.838978 -3.685226 16.813880 -4.838990 -3.685229 8.876465 -3.300164 -5.864409 1.535417 -14.995718 10.927051 0.000001 0.000001 -0.000000 0.000001 0.000001 -0.000000 0.000001 0.000001 -0.000000 4.797875 -9.150676 -6.480517 -45.012381 -45.046785 -42.788994 0.007213 -33.820003 -0.083727 47.060512 12.803658 8.932277 2.772660 1.363393 22.539575 -0.060369 -0.722811 -8.499551 0.000001 -0.000001 -0.000002 0.000002 0.000000 -0.000000 -44.247922 -5.541928 -1.594905 -0.112931 1.763481 1.878047 0.000007 0.000001 -0.000008 0.000004 -0.000001 -0.000000 0.527860 -6.837340 27.411468 0.023636 0.199356 -8.813956 -0.000003 0.000008 -0.000000 -0.000000 0.000001 0.000001 -0.658640 9.214123 20.123202 -0.037314 -0.634567 -7.913852 -0.000002 0.000001 -0.000003 -0.000001 -0.000000 -0.000001 -3.390791 13.279910 26.160767 -0.275991 -1.980713 -17.356957 -0.000006 0.000009 0.000007 -0.000001 0.000000 0.000001 -0.148602 14.039543 0.391271 -13.427057 7.017921 66.971733 0.624338 94.666934 -0.575361 46.263818 9.041124 -16.464775 -1.564185 -2.014252 13.304291 -1.231037 2.662804 49.026517 0.000004 -0.000001 -0.000001 0.000000 -0.000001 -0.000000 -3.099312 -0.478272 6.923045 0.291880 -7.510023 -1.884532 -0.000004 -0.000014 -0.000011 -0.000002 0.000001 -0.000001 -7.422665 1.363429 11.084457 0.512520 -1.384940 37.870213 0.000000 -0.000003 -0.000009 0.000002 -0.000001 0.000004 2.552662 -5.679783 24.288074 -1.544099 3.940311 39.426987 -0.000002 0.000002 0.000009 0.000001 -0.000002 0.000002 4.331905 -0.840548 31.375437 -1.139422 4.741370 27.851365 -0.000000 -0.000005 0.000005 0.000000 -0.000001 -0.000000 -105.357799 -21.708363 38.270551 133.938985 -2.648712 -3.125918 -26.408464 -10.612628 -3.845238 -2.103724 -0.029065 0.067326 0.000000 0.000003 0.000000 -95.102707 -7.967678 -31.078956 151.284865 1.763767 2.825842 2.935568 26.960189 -8.307643 -51.927896 4.567134 -14.232647 -0.000000 0.000001 0.000001 
-30.226950 87.086395 13.554092 10.033817 -3.235629 2.291860 8.688078 -2.053716 -2.138014 17.340628 -4.347546 -3.448512 17.340624 -4.347547 -3.448510 8.657944 -3.903191 -6.710470 0.471076 -19.023453 11.953639 0.000000 0.000001 0.000001 0.000000 0.000001 0.000001 0.000000 0.000001 0.000001 3.930912 -10.727801 -5.958564 -46.383128 -49.228978 -45.150310 0.015377 -30.562744 -0.068383 45.913409 17.156233 14.930358 1.603142 0.319354 23.226736 -0.244039 -1.461910 -17.957602 -0.000001 -0.000004 -0.000002 -0.000000 -0.000000 0.000001 -52.867044 -4.424118 6.113380 -0.986418 0.163076 1.839029 0.000008 0.000001 -0.000008 -0.000001 0.000001 -0.000000 -3.805365 -3.244476 23.459565 0.045754 0.278772 -13.511095 -0.000000 0.000005 -0.000005 -0.000000 0.000001 -0.000000 0.694364 9.325437 20.268720 -0.229698 -1.505518 -18.379016 -0.000002 -0.000000 -0.000006 -0.000000 -0.000001 -0.000000 0.832238 14.319899 19.971970 -0.396476 -2.301286 -20.774387 -0.000006 0.000009 0.000003 0.000001 -0.000001 0.000003 -0.279869 14.707320 0.550123 -17.337231 3.891128 66.126463 0.730430 93.910416 -0.683093 47.654356 6.735556 -21.738020 -1.498714 -2.477529 5.419392 -0.911111 2.346085 41.727296 0.000004 0.000003 0.000003 0.000004 -0.000001 -0.000000 -2.383324 -0.517588 5.589853 1.028297 -7.034591 -2.033471 -0.000002 -0.000013 -0.000012 0.000001 0.000000 0.000001 -7.474271 1.660722 3.325218 0.342719 -1.157826 30.400086 0.000002 -0.000002 -0.000002 -0.000001 0.000002 -0.000002 2.818304 -6.369734 17.714835 -1.122983 3.366178 32.819383 -0.000002 0.000004 0.000006 -0.000001 -0.000002 0.000003 4.720876 -1.657635 25.934478 -0.706344 3.834244 22.046391 0.000000 -0.000001 0.000002 0.000000 0.000002 -0.000002 -106.515468 -21.913193 36.676224 132.943007 -2.695624 -3.135703 -25.735301 -11.984639 -5.898723 -2.222857 -0.029275 0.067602 -0.000000 0.000001 -0.000000 -96.045082 -8.580383 -32.660681 151.409612 1.512692 2.810358 4.136239 27.273704 -8.011928 -53.845865 5.780353 -15.329087 0.000001 -0.000001 -0.000001 
-34.227779 86.478989 15.369411 11.482373 0.046494 3.824662 8.935648 -1.952366 -2.026765 17.853088 -3.966454 -3.025608 17.853093 -3.966455 -3.025609 8.676435 -4.364678 -7.303396 -0.609437 -22.206890 12.500462 0.000000 -0.000002 0.000001 0.000000 -0.000002 0.000001 0.000000 -0.000002 0.000001 3.234534 -12.077236 -4.923632 -49.940789 -51.774634 -49.082614 0.025109 -27.688581 -0.050051 44.978527 21.028407 25.303416 1.480498 -0.313473 26.761834 -0.568693 -2.174532 -28.001354 -0.000001 -0.000003 -0.000001 -0.000004 -0.000001 0.000001 -48.204846 -9.507538 11.216027 -0.986428 0.163082 1.839013 0.000004 -0.000000 -0.000006 0.000003 0.000001 -0.000001 -4.795303 -2.123754 20.090231 0.069786 0.348378 -17.526392 -0.000001 0.000006 -0.000002 -0.000000 0.000000 0.000001 0.579525 10.511979 17.674375 -0.650510 -2.473118 -30.535720 -0.000003 0.000001 -0.000003 -0.000000 0.000000 -0.000001 1.555985 14.271364 15.405495 -0.610591 -2.788017 -25.672490 -0.000006 0.000009 -0.000001 0.000001 -0.000002 -0.000001 -0.578873 16.156369 0.889811 -22.305576 1.143424 64.192870 2.122698 91.315449 -2.074803 49.512922 3.294020 -23.487176 -1.483523 -2.898248 -0.743328 -0.678027 2.032062 35.386947 0.000004 -0.000002 0.000003 0.000000 0.000000 0.000002 -1.812185 -0.911593 4.520458 1.708310 -6.727916 -2.143545 -0.000001 -0.000013 -0.000014 0.000000 -0.000000 0.000001 -7.575615 1.857018 -2.476690 0.216347 -0.928408 23.636799 -0.000001 -0.000003 -0.000003 -0.000002 -0.000002 0.000000 3.007010 -6.970076 11.972178 -0.806212 2.806964 26.895980 0.000002 0.000001 0.000009 0.000000 0.000000 -0.000007 5.034037 -2.263675 20.870324 -0.374769 2.873893 16.337018 -0.000001 -0.000003 0.000002 -0.000001 0.000001 -0.000004 -107.419512 -21.772241 35.398316 131.671349 -2.738881 -3.148869 -25.011823 -13.743156 -8.200613 -2.180672 -0.029300 0.067508 0.000000 -0.000002 0.000000 -96.876951 -8.028614 -34.381086 151.534112 1.123405 2.785579 5.819855 29.401697 -7.069881 -54.864557 7.299737 -16.378143 0.000000 -0.000000 -0.000001 
-37.847160 86.357437 16.612732 12.981862 2.737588 5.392925 9.149638 -1.949207 -1.906570 18.296110 -3.765939 -2.588937 18.296091 -3.765938 -2.588937 8.330307 -4.655941 -7.361987 -1.829146 -24.231587 12.609608 0.000000 0.000000 -0.000001 0.000000 0.000000 -0.000001 0.000000 0.000000 -0.000001 3.012860 -12.611528 -3.127912 -53.804795 -50.221780 -53.110277 0.025360 -30.157396 -0.070945 41.364134 21.359229 31.932306 1.306664 -0.199504 25.270851 -0.579936 -2.194420 -28.291528 -0.000002 -0.000002 0.000000 -0.000000 -0.000000 0.000000 -46.831383 -8.118688 10.153642 -0.986428 0.163085 1.839033 0.000009 -0.000001 -0.000007 0.000000 -0.000000 -0.000000 -4.833885 -2.297811 17.790988 0.077749 0.368158 -18.714457 -0.000000 0.000005 -0.000002 -0.000000 -0.000000 0.000001 0.638730 10.518890 15.752899 -0.677368 -2.519788 -31.155321 -0.000003 -0.000000 -0.000003 -0.000000 0.000001 -0.000003 1.799522 13.921870 12.968960 -0.612523 -2.791990 -25.712445 -0.000005 0.000009 0.000003 0.000001 -0.000001 0.000003 -1.090589 18.298176 1.521542 -28.373530 -0.010443 61.151141 -0.776775 86.500944 0.827964 50.498788 -0.107426 -23.161511 -1.470246 -3.022623 -3.078022 -0.568127 1.842407 31.826865 0.000004 -0.000000 -0.000003 0.000000 -0.000001 0.000001 -1.812302 -1.924504 3.659000 2.334095 -6.724155 -2.170689 -0.000002 -0.000012 -0.000014 0.000001 0.000000 -0.000000 -7.635878 1.899880 -4.596293 0.159228 -0.793403 19.916994 0.000002 -0.000003 -0.000005 -0.000001 -0.000001 -0.000001 3.114853 -7.371542 8.381913 -0.638329 2.434015 23.152612 0.000000 0.000003 0.000003 -0.000001 0.000001 0.000000 5.399795 -2.798486 16.563371 -0.190376 2.095737 11.964413 0.000002 -0.000001 -0.000000 -0.000001 -0.000000 -0.000003 -108.090626 -20.991041 34.616054 129.880132 -2.777386 -3.165701 -24.251019 -15.146945 -10.550434 -2.031987 -0.029199 0.067180 0.000000 0.000002 0.000000 -97.845574 -7.199579 -35.623589 151.354137 0.838676 2.774655 6.858875 31.806630 -5.964073 -54.462579 8.609419 -17.098564 -0.000000 0.000001 -0.000001 
-40.777885 87.055801 17.335159 14.771203 4.638731 7.082488 9.297108 -1.957212 -1.801783 18.603581 -3.577329 -2.204168 18.603586 -3.577330 -2.204168 7.742711 -4.909236 -6.893761 -3.158127 -25.797932 12.709188 0.000000 0.000001 0.000001 0.000000 0.000001 0.000001 0.000000 0.000001 0.000001 3.245789 -12.218853 -2.604813 -60.068577 -48.945412 -58.186948 0.020969 -30.772683 -0.076508 43.480055 21.695046 34.019390 1.241102 -0.256198 22.980245 -0.642574 -2.301066 -29.862588 -0.000002 -0.000002 -0.000001 -0.000000 -0.000000 0.000000 -45.488947 -5.571363 8.489448 -0.986420 0.163059 1.839011 0.000013 -0.000001 -0.000008 -0.000002 0.000001 -0.000000 -4.864649 -2.330428 15.881771 0.084839 0.384877 -19.725655 -0.000002 0.000005 -0.000001 -0.000001 0.000000 -0.000002 0.734378 10.429861 13.500761 -0.723159 -2.596794 -32.186218 -0.000004 -0.000001 -0.000003 -0.000001 -0.000002 -0.000001 2.005404 13.646822 10.334771 -0.637176 -2.841744 -26.216103 -0.000001 0.000010 0.000008 -0.000001 -0.000000 -0.000001 -1.480649 19.960038 1.821270 -35.106605 0.555303 58.334419 -0.232877 79.328699 0.290570 49.464114 -1.668619 -22.759073 -1.440206 -2.945889 -3.014356 -0.563903 1.902577 32.432153 0.000003 0.000000 0.000005 0.000004 0.000001 -0.000004 -3.528227 -3.085595 1.544709 2.883641 -7.673618 -1.929365 -0.000003 -0.000013 -0.000013 0.000001 0.000001 0.000001 -7.578007 1.794770 -4.275058 0.166490 -0.808164 20.386622 0.000003 -0.000004 -0.000005 0.000001 -0.000001 0.000000 3.114698 -7.300875 7.978656 -0.629694 2.408432 22.918346 -0.000002 0.000003 0.000006 -0.000000 -0.000000 0.000002 5.904523 -3.332672 13.924407 -0.202590 2.119970 12.197505 0.000000 -0.000002 0.000005 -0.000002 0.000001 -0.000004 -108.506359 -19.317324 34.074041 127.680906 -2.639948 -3.165327 -23.764936 -15.779544 -12.668563 -1.925172 -0.029164 0.066932 0.000000 -0.000000 -0.000000 -98.719668 -6.894875 -36.360529 150.715719 0.776984 2.788161 6.104362 33.058590 -5.121814 -53.587376 9.070663 -17.158234 -0.000001 -0.000001 -0.000000 
